<svg width="53" height="53" viewBox="0 0 53 53" fill="none" xmlns="http://www.w3.org/2000/svg">
<rect width="53" height="53" rx="15" fill="url(#paint0_linear_119_174)"/>
<rect width="53" height="53" rx="15" fill="#FFEEDF"/>
<rect x="1.32471" y="1.32507" width="50.35" height="50.35" rx="14" fill="url(#paint1_linear_119_174)"/>
<rect x="1.32471" y="1.32507" width="50.35" height="50.35" rx="14" fill="#105B5A"/>
<rect x="1.32471" y="1.32507" width="50.35" height="47.7" rx="14" fill="url(#paint2_linear_119_174)"/>
<rect x="1.32471" y="1.32507" width="50.35" height="47.7" rx="14" fill="url(#paint3_linear_119_174)"/>
<g clip-path="url(#clip0_119_174)">
<path fill-rule="evenodd" clip-rule="evenodd" d="M18.0152 18.0152C18.0152 18.9308 18.3178 19.7759 18.8288 20.456H16.9304C16.4269 20.456 15.944 20.656 15.588 21.0121C15.232 21.3681 15.032 21.8509 15.032 22.3544V25.0664C15.032 25.8236 15.4757 26.4767 16.1168 26.7826V35.9144C16.1168 36.9623 16.9673 37.8128 18.0152 37.8128H35.9143C36.4178 37.8128 36.9006 37.6128 37.2567 37.2567C37.6127 36.9007 37.8127 36.4179 37.8127 35.9144V26.7826C38.4538 26.4777 38.8975 25.8236 38.8975 25.0664V22.3544C38.8975 21.8509 38.6975 21.3681 38.3415 21.0121C37.9854 20.656 37.5026 20.456 36.9991 20.456H35.1007C35.554 19.8517 35.83 19.133 35.8979 18.3806C35.9657 17.6282 35.8227 16.8717 35.4848 16.196C35.147 15.5203 34.6276 14.952 33.985 14.5548C33.3423 14.1576 32.6018 13.9473 31.8463 13.9473C30.2668 13.9473 28.119 14.9247 26.9647 17.321C25.8105 14.9247 23.6615 13.9473 22.0832 13.9473C21.0043 13.9473 19.9695 14.3759 19.2067 15.1388C18.4438 15.9016 18.0152 16.9364 18.0152 18.0152V18.0152ZM26.1186 20.456C25.8073 16.6668 23.3307 15.5745 22.0832 15.5745C21.4358 15.5745 20.815 15.8316 20.3573 16.2893C19.8995 16.7471 19.6424 17.3679 19.6424 18.0152C19.6424 18.6626 19.8995 19.2834 20.3573 19.7411C20.815 20.1989 21.4358 20.456 22.0832 20.456H26.1186ZM36.1855 26.9648V35.9144C36.1855 35.9863 36.1569 36.0553 36.1061 36.1061C36.0552 36.157 35.9862 36.1856 35.9143 36.1856H27.7783V26.9648H36.1855ZM26.1511 36.1856V26.9648H17.744V35.9144C17.744 36.0641 17.8655 36.1856 18.0152 36.1856H26.1511ZM36.9991 25.3376C37.071 25.3376 37.14 25.309 37.1909 25.2582C37.2417 25.2073 37.2703 25.1383 37.2703 25.0664V22.3544C37.2703 22.2825 37.2417 22.2135 37.1909 22.1627C37.14 22.1118 37.071 22.0832 36.9991 22.0832H27.7783V25.3376H36.9991ZM16.9304 25.3376H26.1511V22.0832H16.9304C16.8584 22.0832 16.7895 22.1118 16.7386 22.1627C16.6877 22.2135 16.6592 22.2825 16.6592 22.3544V25.0664C16.6592 25.2161 16.7807 25.3376 16.9304 25.3376ZM34.2871 18.0152C34.2871 18.6626 34.0299 19.2834 33.5722 19.7411C33.1145 20.1989 32.4936 20.456 31.8463 20.456H27.8109C28.1222 16.6668 30.5988 15.5745 31.8463 15.5745C32.4936 15.5745 33.1145 15.8316 33.5722 16.2893C34.0299 16.7471 34.2871 17.3679 34.2871 18.0152V18.0152Z" fill="#F8F8F8"/>
</g>
<defs>
<linearGradient id="paint0_linear_119_174" x1="26.5" y1="0" x2="26.5" y2="53" gradientUnits="userSpaceOnUse">
<stop stop-color="#FF8824"/>
<stop offset="1" stop-color="#E45E03"/>
</linearGradient>
<linearGradient id="paint1_linear_119_174" x1="26.4997" y1="1.32507" x2="26.4997" y2="51.6751" gradientUnits="userSpaceOnUse">
<stop stop-color="#FF8824"/>
<stop offset="1" stop-color="#E45E03"/>
</linearGradient>
<linearGradient id="paint2_linear_119_174" x1="26.4997" y1="1.32507" x2="26.4997" y2="49.0251" gradientUnits="userSpaceOnUse">
<stop stop-color="#FF8824"/>
<stop offset="1" stop-color="#E45E03"/>
</linearGradient>
<linearGradient id="paint3_linear_119_174" x1="26.4997" y1="1.32507" x2="26.4997" y2="49.0251" gradientUnits="userSpaceOnUse">
<stop stop-color="#1B8D79"/>
<stop offset="1" stop-color="#007167"/>
</linearGradient>
<clipPath id="clip0_119_174">
<rect width="26.0351" height="26.0351" fill="white" transform="translate(13.9473 13.9473)"/>
</clipPath>
</defs>
</svg>
